<?xml version="1.0" standalone="no"?>
<!DOCTYPE svg PUBLIC "-//W3C//DTD SVG 20010904//EN"
 "http://www.w3.org/TR/2001/REC-SVG-20010904/DTD/svg10.dtd">
<svg version="1.0" xmlns="http://www.w3.org/2000/svg"
 width="202.000000pt" height="158.000000pt" viewBox="0 0 202.000000 158.000000"
 preserveAspectRatio="xMidYMid meet">

<g transform="translate(0.000000,158.000000) scale(0.100000,-0.100000)"
fill="#000000" stroke="none">
<path d="M180 1565 c0 -8 9 -19 20 -25 15 -8 21 -6 30 9 15 29 13 31 -20 31
-20 0 -30 -5 -30 -15z"/>
<path d="M546 1572 c20 -18 284 -152 285 -145 1 5 1 11 0 16 0 4 4 7 10 7 6 0
9 6 6 13 -2 6 5 23 17 37 l21 25 -25 -21 c-14 -12 -31 -19 -38 -17 -8 3 -10
-1 -6 -12 10 -25 -34 -11 -158 51 -103 52 -133 64 -112 46z"/>
<path d="M685 1570 c3 -5 8 -10 11 -10 2 0 4 5 4 10 0 6 -5 10 -11 10 -5 0 -7
-4 -4 -10z"/>
<path d="M905 1530 c-14 -27 -25 -51 -25 -53 0 -1 16 -4 36 -5 20 -2 45 -7 56
-13 10 -5 23 -7 28 -4 6 3 10 2 10 -4 0 -6 6 -8 14 -5 8 3 17 0 22 -7 5 -8 3
-10 -6 -4 -9 6 -11 4 -6 -4 5 -7 15 -10 23 -7 8 3 12 2 9 -3 -3 -4 10 -22 28
-40 l34 -33 46 85 c25 47 46 90 46 96 0 6 -18 20 -40 31 -32 16 -59 20 -144
20 l-106 0 -25 -50z m85 -20 c0 -5 -5 -10 -11 -10 -5 0 -7 5 -4 10 3 6 8 10
11 10 2 0 4 -4 4 -10z m-15 -30 c3 -6 -1 -7 -9 -4 -18 7 -21 14 -7 14 6 0 13
-4 16 -10z"/>
<path d="M373 1465 l-22 -34 46 -26 c25 -14 47 -24 47 -23 1 2 9 20 19 40 l17
38 -40 20 c-21 11 -41 20 -42 20 -2 -1 -13 -16 -25 -35z"/>
<path d="M0 1410 c0 -19 3 -21 12 -12 9 9 9 15 0 24 -9 9 -12 7 -12 -12z"/>
<path d="M533 1398 c-39 -28 -42 -55 -7 -68 14 -6 26 -10 28 -10 1 0 13 15 26
33 12 17 17 27 11 21 -13 -12 -61 -7 -61 6 0 10 26 20 53 20 18 0 19 2 7 10
-20 13 -21 13 -57 -12z"/>
<path d="M740 1402 c0 -12 51 -34 59 -27 7 8 -28 35 -46 35 -7 0 -13 -4 -13
-8z"/>
<path d="M1006 1361 c-9 -14 55 -61 83 -61 26 0 8 31 -29 50 -45 23 -47 23
-54 11z"/>
<path d="M785 1260 c-4 -6 -4 -14 -1 -17 3 -3 0 -13 -6 -21 -10 -11 -8 -17 7
-28 27 -20 53 -17 60 6 3 11 11 20 16 20 5 0 9 9 9 20 0 12 -7 20 -17 20 -10
0 -28 3 -39 6 -12 3 -25 1 -29 -6z"/>
<path d="M7 1193 c-4 -3 -7 -19 -7 -34 0 -30 28 -48 42 -27 12 20 9 38 -7 44
-8 4 -12 10 -9 15 6 10 -9 12 -19 2z m28 -51 c-3 -3 -11 0 -18 7 -9 10 -8 11
6 5 10 -3 15 -9 12 -12z"/>
<path d="M924 1175 c-9 -36 2 -55 30 -55 19 0 27 7 32 25 9 36 -2 55 -30 55
-19 0 -27 -7 -32 -25z"/>
<path d="M1790 1160 c0 -5 5 -10 11 -10 5 0 7 5 4 10 -3 6 -8 10 -11 10 -2 0
-4 -4 -4 -10z"/>
<path d="M1820 1139 c0 -5 5 -7 10 -4 6 3 10 8 10 11 0 2 -4 4 -10 4 -5 0 -10
-5 -10 -11z"/>
<path d="M400 1132 c-8 -3 -28 -15 -45 -28 -16 -12 -39 -24 -50 -27 -11 -2 30
-5 90 -6 80 0 105 2 92 10 -9 6 -15 14 -12 20 4 5 -4 9 -16 9 -12 0 -27 6 -33
14 -6 7 -18 11 -26 8z"/>
<path d="M1480 1130 c0 -5 7 -10 15 -10 8 0 15 -5 15 -11 0 -6 6 -9 14 -6 8 3
17 -1 20 -9 3 -9 10 -12 16 -9 5 3 10 2 10 -3 0 -5 8 -12 18 -16 9 -3 23 -9
30 -12 7 -3 12 1 12 11 0 11 -5 15 -15 11 -8 -3 -15 0 -15 6 0 6 -3 9 -6 5 -3
-3 -24 8 -47 24 -41 30 -67 37 -67 19z"/>
<path d="M1777 1124 c-8 -8 1 -24 12 -24 4 0 8 7 8 15 0 16 -9 20 -20 9z"/>
<path d="M1827 1084 c-13 -13 -7 -23 22 -38 26 -14 30 -14 35 -1 5 13 -5 20
-19 13 -2 -2 -10 5 -17 15 -8 10 -17 15 -21 11z"/>
<path d="M303 1050 c22 -14 154 -21 182 -9 12 5 -14 8 -72 8 -50 1 -100 4
-110 7 -17 5 -17 5 0 -6z"/>
<path d="M1121 974 c-25 -42 -25 -44 -4 -44 24 0 150 -78 158 -98 6 -16 7 -16
16 1 8 13 6 25 -5 42 -9 13 -13 30 -11 38 3 7 -3 21 -14 31 -17 15 -25 16 -54
7 -48 -16 -68 -6 -60 30 7 39 -1 37 -26 -7z"/>
<path d="M612 955 l-22 -45 39 -19 38 -20 21 41 c28 51 28 55 -8 73 -41 21
-43 20 -68 -30z"/>
<path d="M146 951 c-4 -5 3 -7 14 -4 23 6 26 13 6 13 -8 0 -17 -4 -20 -9z"/>
<path d="M160 911 c-7 -14 -6 -21 3 -24 9 -3 9 -7 -2 -20 -7 -9 -10 -24 -7
-33 5 -14 8 -14 23 2 10 10 13 19 7 21 -5 2 -8 19 -6 38 5 39 -2 45 -18 16z"/>
<path d="M1034 908 c-9 -14 11 -28 115 -83 42 -23 120 -64 174 -94 88 -48 102
-52 98 -28 0 4 4 7 10 7 6 0 9 6 6 13 -2 6 5 23 17 37 l21 25 -25 -21 c-14
-12 -31 -19 -38 -17 -7 3 -11 -1 -10 -9 6 -25 -45 -7 -197 70 -115 59 -149 81
-147 95 3 19 -13 23 -24 5z"/>
<path d="M1516 831 l-45 -88 59 -15 c38 -9 57 -10 54 -4 -3 6 2 2 10 -8 9 -11
16 -16 16 -11 0 5 6 1 13 -10 9 -11 19 -15 27 -10 8 5 11 4 7 -2 -3 -5 9 -24
27 -42 l33 -32 47 88 c25 48 45 92 42 98 -4 12 -217 125 -235 125 -6 0 -31
-40 -55 -89z m55 -70 c-7 -5 -11 -14 -7 -20 5 -7 1 -9 -9 -5 -14 6 -14 8 1 25
10 11 20 17 23 14 3 -4 -1 -10 -8 -14z"/>
<path d="M1086 893 c-6 -14 -5 -15 5 -6 7 7 10 15 7 18 -3 3 -9 -2 -12 -12z"/>
<path d="M1395 900 c3 -5 1 -20 -5 -32 -11 -23 -11 -23 9 1 20 22 20 41 0 41
-6 0 -7 -4 -4 -10z"/>
<path d="M320 826 c-12 -25 -19 -50 -15 -56 7 -11 85 -54 89 -48 2 2 14 25 29
51 25 46 25 49 8 66 -13 13 -23 16 -35 9 -12 -7 -16 -6 -14 4 2 7 -7 14 -18
16 -17 2 -26 -7 -44 -42z"/>
<path d="M200 839 c-7 -11 -10 -23 -7 -25 2 -2 9 7 15 21 14 30 7 33 -8 4z"/>
<path d="M500 750 c-10 -20 -14 -57 -5 -48 3 3 56 -21 117 -53 60 -33 114 -59
119 -59 16 0 9 17 -13 34 l-23 17 24 -12 c37 -18 51 5 19 34 -13 13 -29 22
-35 20 -5 -2 -22 8 -37 22 -16 14 -30 24 -33 21 -3 -2 -21 5 -41 16 -50 28
-80 31 -92 8z m80 -45 c17 -9 30 -18 30 -21 0 -4 -59 23 -69 32 -10 9 13 3 39
-11z m80 -40 c17 -9 30 -18 30 -21 0 -4 -59 23 -69 32 -10 9 13 3 39 -11z"/>
<path d="M962 726 l-21 -35 46 -26 c25 -14 47 -24 47 -23 1 2 9 20 19 40 l17
38 -40 20 c-21 11 -41 20 -44 20 -2 0 -13 -16 -24 -34z"/>
<path d="M148 743 c7 -3 16 -2 19 1 4 3 -2 6 -13 5 -11 0 -14 -3 -6 -6z"/>
<path d="M116 695 c-3 -8 -1 -15 4 -15 6 0 10 7 10 15 0 8 -2 15 -4 15 -2 0
-6 -7 -10 -15z"/>
<path d="M1465 691 c-3 -5 -2 -12 3 -15 5 -3 9 1 9 9 0 17 -3 19 -12 6z"/>
<path d="M84 682 c-13 -8 -34 -46 -34 -61 0 -21 26 1 38 31 13 35 12 41 -4 30z"/>
<path d="M156 675 c4 -8 8 -15 10 -15 2 0 4 7 4 15 0 8 -4 15 -10 15 -5 0 -7
-7 -4 -15z"/>
<path d="M1135 668 c-51 -30 -59 -59 -20 -76 23 -11 29 -9 50 14 14 15 25 32
25 37 0 6 -6 3 -13 -8 -9 -12 -16 -14 -21 -7 -4 6 -13 9 -21 5 -8 -3 -15 0
-15 6 0 6 11 16 25 21 14 5 25 12 25 15 0 8 -13 5 -35 -7z"/>
<path d="M1330 662 c0 -12 51 -34 59 -27 7 8 -28 35 -46 35 -7 0 -13 -4 -13
-8z"/>
<path d="M383 652 c-6 -4 -11 -23 -10 -42 2 -36 -3 -39 -48 -25 -17 5 -25 -3
-48 -51 -15 -31 -27 -57 -25 -58 2 -2 24 -15 50 -30 44 -25 49 -26 71 -12 27
18 63 109 50 128 -4 7 -8 31 -8 52 0 40 -10 52 -32 38z"/>
<path d="M1975 650 c3 -5 8 -10 11 -10 2 0 4 5 4 10 0 6 -5 10 -11 10 -5 0 -7
-4 -4 -10z"/>
<path d="M90 620 c-14 -11 -22 -20 -17 -21 33 -7 57 -21 51 -30 -3 -5 5 -5 17
0 14 5 24 18 26 35 4 25 2 26 -17 16 -22 -12 -44 -5 -35 11 9 13 3 11 -25 -11z"/>
<path d="M1937 633 c-3 -5 5 -8 18 -8 13 0 21 3 18 8 -2 4 -10 7 -18 7 -8 0
-16 -3 -18 -7z"/>
<path d="M1595 619 c-4 -6 -5 -11 -4 -13 22 -16 79 -46 88 -46 23 0 10 31 -21
50 -37 22 -54 25 -63 9z"/>
<path d="M1947 585 c-4 -8 -2 -17 4 -21 6 -4 6 -11 -2 -20 -6 -7 -9 -21 -5
-29 5 -13 8 -14 20 -3 8 7 11 17 8 23 -4 5 -5 22 -3 37 3 29 -13 38 -22 13z"/>
<path d="M1306 563 c-6 -14 -5 -15 5 -6 7 7 10 15 7 18 -3 3 -9 -2 -12 -12z"/>
<path d="M60 538 c-12 -22 -12 -22 6 -6 10 10 15 20 12 24 -4 3 -12 -5 -18
-18z"/>
<path d="M1990 519 c-7 -11 -10 -23 -7 -25 2 -2 9 7 15 21 14 30 7 33 -8 4z"/>
<path d="M1367 498 c-4 -23 0 -37 11 -45 24 -19 50 -16 57 7 3 11 11 20 16 20
5 0 9 9 9 20 0 11 -6 20 -14 20 -7 0 -27 3 -43 6 -28 6 -31 4 -36 -28z"/>
<path d="M1516 449 c-20 -29 -6 -64 25 -64 34 0 52 51 24 71 -25 19 -31 18
-49 -7z"/>
<path d="M1938 423 c7 -3 16 -2 19 1 4 3 -2 6 -13 5 -11 0 -14 -3 -6 -6z"/>
<path d="M964 379 c-12 -11 -38 -27 -60 -34 -38 -14 -36 -14 69 -15 65 0 107
4 107 10 0 6 -8 10 -17 10 -15 0 -14 2 2 14 18 13 18 14 -9 9 -20 -4 -31 -1
-38 11 -12 22 -29 20 -54 -5z"/>
<path d="M1905 370 c-3 -5 -1 -10 4 -10 6 0 11 5 11 10 0 6 -2 10 -4 10 -3 0
-8 -4 -11 -10z"/>
<path d="M1874 362 c-23 -15 -47 -81 -24 -67 6 3 13 -1 16 -9 3 -9 10 -14 14
-11 5 3 16 -5 24 -17 13 -18 20 -20 33 -12 9 5 18 20 20 33 3 20 0 22 -21 17
-14 -3 -27 -2 -31 4 -3 5 -12 7 -20 3 -18 -6 -19 10 -4 39 12 22 9 30 -7 20z"/>
<path d="M1947 349 c4 -13 8 -18 11 -10 2 7 -1 18 -6 23 -8 8 -9 4 -5 -13z"/>
<path d="M895 309 c12 -8 51 -12 104 -10 111 2 119 11 10 11 -46 0 -95 3 -109
6 -23 5 -24 4 -5 -7z"/>
<path d="M1212 239 c-7 -11 -17 -31 -22 -45 -8 -21 -6 -26 20 -39 16 -8 34
-15 39 -15 9 0 51 70 51 84 0 6 -56 36 -67 36 -5 0 -14 -9 -21 -21z"/>
<path d="M765 240 c3 -5 11 -10 16 -10 6 0 7 5 4 10 -3 6 -11 10 -16 10 -6 0
-7 -4 -4 -10z"/>
<path d="M1850 218 c-12 -22 -12 -22 6 -6 10 10 15 20 12 24 -4 3 -12 -5 -18
-18z"/>
<path d="M738 213 c6 -2 18 -2 25 0 6 3 1 5 -13 5 -14 0 -19 -2 -12 -5z"/>
<path d="M749 178 c0 -7 -2 -29 -4 -48 -4 -41 4 -58 16 -39 8 12 10 12 18 0 7
-11 11 -10 20 7 14 26 14 43 0 19 -15 -26 -38 1 -33 41 2 18 -1 32 -6 32 -6 0
-10 -6 -11 -12z"/>
<path d="M790 171 c0 -6 4 -13 10 -16 6 -3 7 1 4 9 -7 18 -14 21 -14 7z"/>
<path d="M909 89 l-23 -51 23 -19 c13 -10 38 -19 55 -19 28 0 35 6 52 43 19
39 19 43 4 58 -13 12 -22 14 -36 6 -11 -5 -16 -7 -12 -2 8 8 -15 35 -30 35 -5
0 -19 -23 -33 -51z"/>
<path d="M1095 22 c-14 -14 -1 -22 35 -22 28 0 38 4 34 13 -4 13 -59 19 -69 9z"/>
<path d="M735 10 c-3 -5 1 -10 10 -10 9 0 13 5 10 10 -3 6 -8 10 -10 10 -2 0
-7 -4 -10 -10z"/>
</g>
</svg>
